<svg width="48" height="48" viewBox="0 0 48 48" fill="none" xmlns="http://www.w3.org/2000/svg">
<rect width="48" height="48" rx="12" fill="#EA4335"/>
<path d="M24 19.6364V28.8H35.1273C34.6364 31.2 33.0545 33.1636 30.8182 34.4L37.0909 39.2727C40.7636 36 42.8 30.9091 42.8 24.8182C42.8 23.2364 42.6364 21.7455 42.3273 20.3636H24V19.6364Z" fill="white"/>
<path d="M10.8 24.8182C10.8 27.6 11.5636 30.1818 12.9091 32.3636L6.54545 37.2364C4.36364 33.0545 3.2 28.1818 3.2 22.9091C3.2 17.6364 4.36364 12.7636 6.54545 8.58182L12.9091 13.4545C11.5636 15.6364 10.8 18.2182 10.8 21V24.8182Z" fill="white"/>
<path d="M24 10.9091C27.1636 10.9091 30.0545 12.1091 32.2364 14.1818L37.6364 8.78182C33.6364 5.01818 28.2545 2.90909 24 2.90909C17.6364 2.90909 12.1818 6.54545 8.72727 11.8182L15.0909 16.6909C16.7636 13.0909 20.1091 10.9091 24 10.9091Z" fill="white"/>
</svg>
